HIERARCHY
ROOT Hips
{
    OFFSET 0.000000 0.000000 0.000000
    CHANNELS 6 Xposition Yposition Zposition Zrotation Xrotation Yrotation
    JOINT Spine
    {
        OFFSET -0.000000 7.246840 0.000000
        CHANNELS 3 Zrotation Xrotation Yrotation
        JOINT Spine1
        {
            OFFSET -0.000000 20.289354 0.000000
            CHANNELS 3 Zrotation Xrotation Yrotation
            JOINT Neck
            {
                OFFSET -0.000000 20.206032 1.836912
                CHANNELS 3 Zrotation Xrotation Yrotation
                JOINT Head
                {
                    OFFSET -0.000000 12.372654 -1.767522
                    CHANNELS 3 Zrotation Xrotation Yrotation
                    End Site
                    {
                        OFFSET -0.000000 22.094025 0.000000
                    }
                }
            }
            JOINT LeftShoulder
            {
                OFFSET 3.465871 17.201674 -0.568930
                CHANNELS 3 Zrotation Xrotation Yrotation
                JOINT LeftArm
                {
                    OFFSET 14.070313 0.000000 0.000000
                    CHANNELS 3 Zrotation Xrotation Yrotation
                    JOINT LeftForeArm
                    {
                        OFFSET 26.549477 0.000000 0.000000
                        CHANNELS 3 Zrotation Xrotation Yrotation
                        JOINT LeftHand
                        {
                            OFFSET 18.880413 0.000000 0.000000
                            CHANNELS 3 Zrotation Xrotation Yrotation
                            End Site
                            {
                                OFFSET 13.256415 0.000000 0.000000
                            }
                        }
                    }
                }
            }
            JOINT RightShoulder
            {
                OFFSET -3.526370 17.201674 -0.568930
                CHANNELS 3 Zrotation Xrotation Yrotation
                JOINT RightArm
                {
                    OFFSET -14.070313 0.000000 0.000000
                    CHANNELS 3 Zrotation Xrotation Yrotation
                    JOINT RightForeArm
                    {
                        OFFSET -26.549477 0.000000 0.000000
                        CHANNELS 3 Zrotation Xrotation Yrotation
                        JOINT RightHand
                        {
                            OFFSET -18.880413 0.000000 0.000000
                            CHANNELS 3 Zrotation Xrotation Yrotation
                            End Site
                            {
                                OFFSET -13.256415 0.000000 0.000000
                            }
                        }
                    }
                }
            }
        }
    }
    JOINT LeftUpLeg
    {
        OFFSET 8.837609 0.000000 0.000000
        CHANNELS 3 Zrotation Xrotation Yrotation
        JOINT LeftLeg
        {
            OFFSET -0.000000 -41.345005 0.000000
            CHANNELS 3 Zrotation Xrotation Yrotation
            JOINT LeftFoot
            {
                OFFSET -0.000000 -35.500874 0.000000
                CHANNELS 3 Zrotation Xrotation Yrotation
                JOINT LeftToeBase
                {
                    OFFSET -0.000000 -5.744446 13.256415
                    CHANNELS 3 Zrotation Xrotation Yrotation
                    End Site
                    {
                        OFFSET -0.000000 0.000000 3.535044
                    }
                }
            }
        }
    }
    JOINT RightUpLeg
    {
        OFFSET -8.837609 0.000000 0.000000
        CHANNELS 3 Zrotation Xrotation Yrotation
        JOINT RightLeg
        {
            OFFSET -0.000000 -41.345005 0.000000
            CHANNELS 3 Zrotation Xrotation Yrotation
            JOINT RightFoot
            {
                OFFSET -0.000000 -35.500874 0.000000
                CHANNELS 3 Zrotation Xrotation Yrotation
                JOINT RightToeBase
                {
                    OFFSET -0.000000 -5.744446 13.256415
                    CHANNELS 3 Zrotation Xrotation Yrotation
                    End Site
                    {
                        OFFSET -0.000000 0.000000 3.535044
                    }
                }
            }
        }
    }
}
MOTION
Frames:    14
Frame Time:    0.010000
-4.025615    82.176926    60.729755    4.176433    -0.315460    6.291745    -5.386206    -7.119623    0.018249    0.532925    13.011048    0.292831    -0.858215    22.614727    -3.541112    3.844427    -18.852600    -2.575364    7.410568    4.941831    11.246992    -72.814034    51.765072    -0.440621    2.074877    -17.834120    -62.917587    -45.814682    -6.556312    -23.931206    -6.411582    5.843104    9.869784    70.695374    54.163406    4.218441    -12.617210    -18.058207    45.084145    6.546805    -10.962134    35.103500    4.308156    -7.729063    -4.194819    0.534408    5.046797    -3.465899    -3.849962    5.546737    -7.671965    -1.216700    -2.963184    1.734569    -12.636935    -5.279382    -8.051119    3.353443    6.776582    1.799365    9.568983    -1.568466    -5.979896    -1.412542    2.143014    2.476234    
-3.885116    82.036308    61.171986    3.421760    -0.326973    5.770397    -5.205419    -7.397087    -0.249950    1.500245    12.844355    -0.081925    -1.075302    22.952183    -3.038932    3.502531    -18.961945    -2.169701    7.403735    4.869390    11.461520    -73.524399    52.673054    0.526153    2.123947    -17.338297    -63.031628    -44.340092    -6.058426    -24.669113    -6.368060    5.932631    9.821830    70.351990    53.562603    4.299071    -12.086545    -18.349878    45.757980    5.290324    -11.787157    35.170811    4.855476    -7.457731    -3.856048    0.941427    5.485221    -4.072900    -4.994335    4.634455    -5.587534    -1.025197    -1.942805    1.452256    -11.951372    -5.137041    -7.639195    3.418877    6.721832    1.902975    9.676360    -1.818214    -5.904746    -1.391225    2.079874    2.440465    
-3.727652    81.916199    61.576645    2.771558    -0.365532    5.265198    -5.119977    -7.649641    -0.524932    2.430825    12.869596    -0.456620    -1.385479    22.964483    -2.529600    3.419235    -18.886728    -1.687434    7.398281    4.810624    11.533119    -74.142403    53.564064    1.346370    1.843755    -17.030163    -63.309231    -42.486847    -6.107130    -25.319479    -6.220956    5.802782    9.806368    70.065384    52.829491    4.198806    -11.377880    -18.897755    46.611416    4.631341    -12.752341    35.211304    5.369285    -7.174892    -3.906301    1.206083    5.791739    -4.358664    -5.382674    3.794883    -4.802298    -1.117970    -0.890343    1.573461    -11.377771    -4.991061    -7.275343    3.475487    6.699169    2.025647    9.769552    -2.021353    -5.831820    -1.359404    1.994755    2.386757    
-3.536040    81.845596    61.952843    2.381357    -0.471308    4.756182    -5.371410    -7.728765    -0.849516    3.535430    12.918228    -0.886938    -1.855071    22.884785    -2.011047    3.372397    -18.826281    -1.192783    7.179624    4.779278    11.694834    -74.578133    54.611938    2.013051    1.152810    -16.935513    -63.632355    -40.455067    -6.561827    -26.319649    -6.151251    5.651221    9.833275    69.529404    51.995415    4.366612    -10.247716    -19.726244    47.544163    3.879098    -14.218206    35.260899    5.809757    -6.568195    -4.564398    0.839424    5.373507    -3.136897    -4.719296    3.991556    -5.140699    -1.464995    -1.406284    2.068339    -11.073779    -4.794289    -6.888973    3.507501    6.732853    2.223173    9.797639    -2.197356    -5.815610    -1.299216    1.867786    2.284107    
-3.361709    81.858421    62.326668    2.245316    -0.727392    4.348964    -5.997516    -7.568590    -1.230637    4.778491    12.935907    -1.375655    -2.303656    22.865393    -1.487804    3.172004    -18.874821    -0.735866    6.930896    4.725668    11.850643    -75.085182    55.727604    2.773446    0.763541    -16.948410    -63.727505    -39.184395    -6.827584    -27.177944    -6.164245    5.363074    9.929242    69.252922    50.958324    4.378248    -8.835998    -20.637047    48.524006    3.159580    -15.882711    35.648773    5.927801    -5.926148    -4.576243    0.756746    5.263851    -2.593551    -4.399109    3.971503    -5.253457    -1.551047    -1.480992    2.190822    -10.959801    -4.364600    -6.471186    3.465575    6.676386    2.373793    9.862422    -2.333652    -5.893104    -1.255628    1.747229    2.210258    
-3.172334    81.937004    62.663330    2.485707    -0.888804    3.900492    -6.799476    -7.376936    -1.544556    5.604264    12.807612    -1.735206    -2.617717    22.964537    -1.024673    3.019438    -18.939791    -0.321193    6.838392    4.681615    11.908885    -75.525688    56.626717    3.572684    0.394259    -17.053452    -63.768795    -39.102795    -6.958922    -27.782507    -6.086071    5.348837    9.875736    68.694931    49.803207    5.035530    -7.586550    -21.582188    49.313927    2.792930    -17.440399    35.961670    5.567116    -5.503987    -4.100916    0.894933    5.452884    -2.556295    -4.577652    3.775412    -5.396116    -1.576025    -1.525204    2.226705    -11.235789    -4.049343    -6.045731    3.433392    6.614132    2.518507    9.793067    -2.376597    -5.939942    -1.145895    1.625591    2.019685    
-2.983155    82.074036    62.997234    2.954200    -1.025295    3.405040    -7.856549    -7.353328    -1.785733    6.324472    12.904753    -1.996052    -2.594075    22.918879    -0.568621    2.627646    -18.837654    0.035027    6.804839    5.224597    11.817836    -75.104134    57.389214    3.285733    -0.102172    -17.425039    -64.066734    -39.558525    -7.379014    -28.163649    -6.114554    5.334709    9.833904    68.347183    48.406185    5.691612    -6.781955    -22.362841    50.017330    2.601405    -18.588924    36.626034    5.196161    -4.966568    -3.555378    0.574035    5.353055    -2.542346    -4.377191    3.725874    -5.580056    -1.560871    -1.862802    2.209899    -11.724493    -3.755470    -5.604803    3.378852    6.508865    2.604288    9.682656    -2.342529    -5.937519    -1.067272    1.556830    1.882476    
-2.821126    82.227768    63.302414    3.441765    -1.091774    2.940082    -8.816003    -7.414062    -1.962277    6.698813    12.996806    -2.153819    -2.165853    23.084000    -0.253521    2.026634    -18.970419    0.207532    7.572685    5.315621    11.370285    -76.192436    57.640327    4.153147    -0.737116    -17.293968    -64.329880    -39.422905    -7.536893    -28.532667    -6.027851    5.422777    9.647809    67.920059    47.008438    6.565179    -6.319440    -23.128075    50.822884    2.175621    -19.649963    37.102215    4.866739    -4.536492    -2.862823    0.202078    5.276795    -2.721827    -4.690481    3.539551    -5.721838    -1.622034    -1.507631    2.291452    -12.225774    -3.516088    -5.193875    3.335921    6.332049    2.669481    9.595002    -2.218401    -5.938934    -0.968798    1.422794    1.711203    
-2.694252    82.389412    63.599640    3.874252    -1.139648    2.491693    -9.933866    -7.496087    -2.132727    7.433537    13.066382    -2.332804    -1.980103    23.215332    0.083385    1.602460    -18.979097    0.437677    7.960301    5.421056    11.104301    -76.606461    58.421093    4.618353    -1.347029    -17.217754    -64.653023    -38.660496    -7.785462    -29.270475    -6.138853    5.512980    9.467368    67.447815    45.831554    7.318434    -6.092424    -23.993097    52.097549    1.298218    -20.835358    37.053093    4.590900    -4.111326    -1.998854    -0.090885    5.139316    -2.986962    -5.029063    3.442280    -5.887147    -1.309910    -1.758599    1.853424    -12.630788    -3.268217    -4.759338    3.171485    6.129810    2.636536    9.584420    -2.092160    -5.896702    -0.901115    1.301610    1.593688    
-2.531447    82.532433    63.874638    4.257297    -1.095838    1.945843    -10.719216    -7.797822    -2.205896    7.818188    13.251833    -2.382725    -1.655934    23.613304    0.324414    1.043324    -19.370373    0.539459    8.371684    5.418532    10.660282    -76.926224    59.482227    5.205970    -1.632604    -16.811478    -65.044426    -36.632397    -7.881946    -30.005178    -6.169065    5.489012    9.273505    67.134735    43.886555    7.906398    -5.306447    -24.618624    53.823109    0.653118    -21.940107    37.299519    4.265515    -3.714361    -1.111656    -0.229225    4.887315    -3.136391    -5.327427    3.347019    -6.167443    -1.204000    -1.746109    1.703449    -13.055431    -3.174567    -4.485837    3.155810    5.882013    2.587006    9.491929    -1.952356    -5.689069    -0.847787    1.216915    1.500717    
-2.364295    82.671181    64.165703    4.440606    -1.041567    1.502886    -11.091476    -8.146094    -2.279695    7.897851    13.395648    -2.416339    -1.243202    24.146820    0.548035    0.482885    -19.868248    0.624998    8.870797    5.677420    10.175882    -76.832924    60.453777    5.305884    -2.085253    -16.291834    -65.540054    -34.115711    -8.174920    -30.644558    -6.088197    5.414527    9.057828    66.798668    41.834991    8.346500    -4.333092    -25.251612    55.962624    0.445121    -23.011862    37.470253    4.086736    -3.274298    -0.580649    -0.340067    4.485094    -2.990603    -5.565494    3.319456    -6.464612    -1.102305    -1.729217    1.559415    -13.291509    -2.995451    -4.401009    3.204818    5.459806    2.466936    9.380331    -1.684304    -5.313635    -0.801288    1.107117    1.420053    
-2.214301    82.769501    64.390724    4.613710    -0.793422    0.869378    -11.428714    -8.501706    -2.286643    7.996733    13.233185    -2.363422    -0.876208    24.833860    0.737602    -0.148087    -20.456251    0.647651    9.249053    5.824321    9.713058    -76.974686    61.620399    5.898569    -2.610397    -15.960797    -66.260735    -31.599276    -8.762566    -31.222914    -6.117182    5.331340    8.978037    66.482803    39.759235    8.752498    -2.942965    -26.064920    58.372379    0.535142    -24.411461    37.914101    3.914328    -3.003985    -0.122205    -0.465145    4.000649    -2.732360    -5.646382    3.349992    -6.578241    -1.226702    -1.460154    1.732509    -13.506560    -3.159231    -4.267646    3.159968    5.182631    2.532652    9.362686    -1.518670    -5.015999    -0.762723    1.058236    1.352409    
-2.026506    82.851730    64.619766    4.681418    -0.532978    0.301720    -11.519940    -8.826456    -2.335149    8.047692    12.974351    -2.359616    -0.932040    25.284088    0.958496    -0.334307    -20.500938    0.809593    9.360401    5.907416    9.394526    -77.063332    62.996937    6.664819    -3.223386    -15.856804    -67.109184    -29.167393    -9.677883    -31.694494    -6.072052    5.223156    8.882668    65.724205    37.842113    9.377029    -1.554067    -26.765608    60.903332    0.583605    -25.765335    38.149105    3.740360    -2.728872    0.024416    -0.498973    3.446937    -2.368039    -5.592905    3.405512    -6.546464    -1.241313    -1.441251    1.752939    -13.662898    -3.282080    -4.199979    3.153988    4.847543    2.547996    9.368561    -1.347759    -4.677171    -0.750425    0.984445    1.331643    
-1.831658    82.902588    64.834679    4.652477    -0.247460    -0.315667    -11.407812    -9.089842    -2.378552    8.004846    12.585626    -2.352861    -0.886394    25.836119    1.212358    -0.754615    -20.707821    0.938772    9.443689    6.043706    9.236447    -77.184525    64.414665    7.448874    -3.892000    -16.033478    -68.011726    -27.291063    -10.809856    -32.039742    -5.998779    4.965734    8.907948    64.854874    36.073658    9.942725    -0.415044    -27.366552    63.364845    0.640723    -26.940327    38.374672    3.623551    -2.466552    0.089853    -0.479233    2.872793    -2.095549    -5.456536    3.448087    -6.264235    -1.267704    -1.442935    1.790224    -13.731118    -3.456659    -4.108270    3.164897    4.514001    2.627046    9.393482    -1.184463    -4.379614    -0.744362    0.940219    1.321502    
